HIERARCHY
ROOT pelvis
{
  OFFSET 0 100 0
  CHANNELS 6 Xposition Yposition Zposition Zrotation Xrotation Yrotation
  JOINT pelvis_right_femur
  {
    OFFSET -10.78128 -3.44521 -0.5502486
    CHANNELS 3 Zrotation Xrotation Yrotation
    JOINT right_femur_tibia
    {
      OFFSET -0.8047443 -44.0398 -0.1307829
      CHANNELS 3 Zrotation Xrotation Yrotation
      JOINT right_tibia_foot
      {
        OFFSET 3.006224 -47.83518 -5
        CHANNELS 3 Zrotation Xrotation Yrotation
        End Site
        {
          OFFSET 0 -5 15
        }
      }
    }
  }
  JOINT pelvis_left_femur
  {
    OFFSET 10.78128 -3.44521 -0.5502486
    CHANNELS 3 Zrotation Xrotation Yrotation
    JOINT left_femur_tibia
    {
      OFFSET 0.8047443 -44.0398 -0.1307829
      CHANNELS 3 Zrotation Xrotation Yrotation
      JOINT left_tibia_foot
      {
        OFFSET -4.370144 -48.10324 -4.275266
        CHANNELS 3 Zrotation Xrotation Yrotation
        End Site
        {
          OFFSET 0 -5 15
        }
      }
    }
  }
  JOINT pelvis_spine1
  {
    OFFSET 0 6.468898 -3.129235
    CHANNELS 3 Zrotation Xrotation Yrotation
    JOINT spine1
    {
      OFFSET 0 23.15396 4.99043
      CHANNELS 3 Zrotation Xrotation Yrotation
      JOINT spine2
      {
        OFFSET 0 20.79997 -5.064912
        CHANNELS 3 Zrotation Xrotation Yrotation
        JOINT neck
        {
          OFFSET 0 14.38658 9.616178
          CHANNELS 3 Zrotation Xrotation Yrotation
          End Site
          {
            OFFSET 0 20 0
          }
        }
      }
      JOINT right_manubrium
      {
        OFFSET -5.722621 16.35077 3.967754
        CHANNELS 3 Zrotation Xrotation Yrotation
        JOINT right_clavicle
        {
          OFFSET -13.16364 1.694482 -4.693211
          CHANNELS 3 Zrotation Xrotation Yrotation
          JOINT right_humerus
          {
            OFFSET -28.5034 -0.3100689 -2.792744
            CHANNELS 3 Zrotation Xrotation Yrotation
            JOINT right_radius
            {
              OFFSET -25.15693 0.02248979 -1.271978
              CHANNELS 3 Zrotation Xrotation Yrotation
              End Site
              {
                OFFSET -15 0 0
              }
            }
          }
        }
      }
      JOINT left_manubrium
      {
        OFFSET 5.722621 16.35077 3.967754
        CHANNELS 3 Zrotation Xrotation Yrotation
        JOINT left_clavicle
        {
          OFFSET 13.16364 1.694482 -4.693211
          CHANNELS 3 Zrotation Xrotation Yrotation
          JOINT left_humerus
          {
            OFFSET 29.39168 -1.063119 -2.237045
            CHANNELS 3 Zrotation Xrotation Yrotation
            JOINT left_radius
            {
              OFFSET 24.59957 -0.9528479 0.9047498
              CHANNELS 3 Zrotation Xrotation Yrotation
              End Site
              {
                OFFSET 15 -0 -0
              }
            }
          }
        }
      }
    }
  }
}
MOTION
Frames: 9
Frame Time: 0.0416666666667
1016.701 105.0924 2943.807 5.00139 -4.963024 35.90379 -0.3030975 -20.76305 0.2764319 -0 27.84938 -0 -1.551545 -2.142623 -7.621891 -5.288044 11.4729 -8.27722 -0 12.20644 -0 -2.853778 -18.85838 14.24829 0.5156368 -1.803493 9.642321 -0.8783793 12.94513 -4.201104 1.289532 18.80887 1.227094 -1.981794 -20.5488 4.84044 -5.260113 -32.00924 9.993427 86.70218 23.29629 -2.346724 -0 0 29.81471 -23.11482 12.48474 19.15865 0.578758 -18.01498 -3.53897 -90.87505 12.50463 39.22547 0 0 -14.03037 3.506366 9.223567 12.21966
1020.14 103.8153 2948.586 4.794111 -4.265728 36.45283 -0.4888939 -23.5993 -0.510359 -0 19.42326 -0 -1.613046 -2.975567 -7.85276 -5.36932 14.3453 -8.064294 -0 12.96273 -0 -3.640258 -20.13274 13.27428 0.3642514 -1.795296 9.691351 -0.9101222 12.8676 -4.180036 1.250657 18.94013 1.314525 -1.865262 -20.4252 4.813534 -5.017937 -31.83251 10.07532 86.30903 23.85768 -2.088471 -0 0 29.63347 -23.20152 12.25675 19.15966 0.6898099 -18.067 -3.36942 -90.73163 12.48055 38.91858 0 0 -13.88585 3.836566 9.410835 11.73803
1023.738 102.4556 2953.797 4.567293 -3.654155 36.94739 -0.352946 -25.25986 -0.9073999 -0 13.30668 -0 -1.791907 -3.107084 -8.040078 -5.386284 16.84818 -7.798247 -0 15.65347 -0 -4.499181 -20.59514 12.45537 0.2053022 -1.79598 9.738609 -0.9415317 12.78997 -4.161157 1.211314 19.07688 1.410376 -1.738012 -20.2978 4.789267 -4.752247 -31.64365 10.16243 85.8913 24.43173 -1.829863 -0 0 29.44636 -23.28738 12.03068 19.1494 0.8164956 -18.12889 -3.193791 -90.59838 12.46786 38.58824 0 0 -13.72599 4.181788 9.616276 11.23058
1027.502 101.3234 2959.485 4.343216 -3.377929 37.39982 0.3470418 -25.46827 -0.6269312 -0 10.37331 -0 -2.14221 -2.562911 -8.252356 -5.183987 18.75045 -7.552036 -0 20.49464 -0 -5.47388 -19.861 11.95475 0.03923784 -1.805982 9.783422 -0.972505 12.71273 -4.144841 1.171894 19.21892 1.515259 -1.599771 -20.16777 4.768682 -4.463179 -31.4416 10.25409 85.45153 25.01629 -1.575235 -0 0 29.25183 -23.3702 11.80723 19.12514 0.959291 -18.20122 -3.012972 -90.4771 12.46964 38.23338 0 0 -13.55257 4.540066 9.838754 10.70056
1031.386 100.7025 2965.583 4.183576 -3.652966 37.74476 1.690885 -24.0064 0.4194149 -0 10.68994 -0 -2.578925 -1.689017 -8.499584 -4.668947 19.58154 -7.372398 -0 27.4075 -0 -6.521238 -17.7393 11.98253 -0.1332745 -1.825577 9.824984 -1.002834 12.63653 -4.131566 1.132851 19.36597 1.629674 -1.450448 -20.03652 4.752907 -4.151217 -31.22528 10.34959 84.99331 25.60893 -1.329889 -0 0 29.04796 -23.4473 11.58726 19.08382 1.118365 -18.28455 -2.828145 -90.36954 12.48913 37.85301 0 0 -13.36795 4.908981 10.07684 10.15183
1035.295 100.7752 2971.897 4.167658 -4.529465 37.84158 3.44438 -20.9478 1.975431 -0 13.26059 -0 -2.969653 -1.105333 -8.708106 -3.91297 18.75777 -7.222093 -0 35.91483 -0 -7.434958 -14.48466 12.70244 -0.3113408 -1.854856 9.862363 -1.03218 12.5621 -4.121904 1.09469 19.51765 1.753969 -1.290174 -19.90574 4.743123 -3.81723 -30.99364 10.44811 84.52122 26.20694 -1.09999 -0 0 28.83253 -23.51557 11.37177 19.02216 1.293534 -18.37934 -2.640748 -90.27734 12.52958 37.44633 0 0 -13.17498 5.285658 10.3288 9.588852
1039.113 101.5545 2978.15 4.339463 -5.771059 37.55109 5.089642 -16.73812 3.538856 -0 16.32257 -0 -3.276073 -1.477217 -8.732625 -3.166622 15.87244 -7.026366 -0 45.05652 -0 -7.983836 -10.91703 14.03165 -0.4938444 -1.893674 9.894503 -1.060056 12.49022 -4.116511 1.057958 19.67346 1.888316 -1.119332 -19.77739 4.740546 -3.46249 -30.74566 10.54878 84.04084 26.80741 -0.89249 -0 0 28.60313 -23.57146 11.16192 18.93674 1.484222 -18.48593 -2.452446 -90.20197 12.5942 37.01282 0 0 -12.97695 5.666818 10.5926 9.016638
1042.747 102.855 2984.094 4.67443 -6.907627 36.85601 6.086078 -11.9539 4.685596 -0 18.26129 -0 -3.536405 -3.080984 -8.433309 -2.679803 10.96676 -6.783493 -0 53.2801 -0 -8.13653 -8.111349 15.58321 -0.6794651 -1.941613 9.920215 -1.085803 12.42172 -4.116117 1.023236 19.83283 2.032707 -0.9385508 -19.65372 4.74642 -3.088668 -30.48035 10.65066 83.55871 27.40734 -0.7150867 -0 0 28.35695 -23.61103 10.95892 18.82404 1.689428 -18.60452 -2.265109 -90.14467 12.686 36.55214 0 0 -12.77756 6.048878 10.86593 8.440547
1046.172 104.3311 2989.62 5.103551 -7.534412 35.90479 6.201528 -6.968611 5.306156 -0 18.44496 -0 -3.689212 -5.50465 -7.784047 -2.458364 4.580074 -6.541208 -0 58.58897 -0 -8.106385 -6.741113 16.92545 -0.8667068 -1.997922 9.938167 -1.108561 12.35748 -4.121524 0.9911295 19.99511 2.186971 -0.7486974 -19.53731 4.762021 -2.697798 -30.19669 10.75282 83.08239 28.00375 -0.5761941 -0 0 28.09074 -23.62988 10.76394 18.68043 1.907699 -18.73514 -2.080779 -90.10638 12.80769 36.06405 0 0 -12.58078 6.428109 11.14623 7.866066
